<svg xmlns="http://www.w3.org/2000/svg" viewBox="0 0 291.86 291.86" fill="currentColor"><g><path d="M61.51 223.67c-1.45.69-3.36.69-5.16-1.44-2.05-2.42-1.37-5 .48-6.57s4.62-1.71 6.65.68c1.76 2.07 1.48 4.08.52 5.24l-1.41-1.66c.27-.47.58-1.36-.4-2.52-1.07-1.27-2.59-1.11-3.83-.06-1.25 1.06-1.81 2.56-.68 3.9.82.96 1.55 1.07 2.42.78l1.4 1.65Zm14.58 11.29c-1.6 1.86-4.28 2.46-6.72.36-2.28-1.96-2.24-4.64-.55-6.6 1.59-1.85 4.38-2.3 6.66-.34 2.35 2.02 2.19 4.75.62 6.58Zm-5.54-4.78c-1.09 1.27-1.31 2.82 0 3.95 1.35 1.16 2.86.47 3.8-.62 1.02-1.19 1.33-2.72-.03-3.89-1.31-1.13-2.8-.56-3.77.57Zm15.38 6.41 6.2 3.86-.91 1.45-4.37-2.72-1.07 1.71 4.08 2.54-.91 1.46-4.08-2.54-1.81 2.9-1.83-1.14 4.69-7.53Zm13.61 7.7 6.69 2.93-.69 1.57-4.71-2.07-.81 1.85 4.4 1.93-.69 1.58-4.4-1.93-1.37 3.13-1.97-.86 3.56-8.12Zm20.02 12.49-4.78-1.31-.53 1.95 5.31 1.45-.69 1.6-7.15-1.96 2.34-8.56 7.11 1.95-.46 1.66-5.03-1.38-.44 1.62 4.78 1.31-.46 1.66Zm16.57 2.69-4.91-.59-.24 2 5.46.65-.45 1.68-7.35-.88 1.05-8.8 7.31.87-.2 1.71-5.18-.62-.2 1.67 4.91.59-.2 1.71Zm29.85-3.21-2.34 3.59c-1.06 1.62-1.65 2.88-3.76 3.15-2.19.29-3.27-.96-3.43-2.18-.13-1.02.24-2.02 2.39-3.16 1.59-.85 1.7-1.39 1.64-1.81s-.39-.85-1.01-.76c-.57.07-.78.55-.72.99.06.46.5.86 1.1 1.18l7.02 4.64-2.88.38-5.97-3.96c-.72-.49-1.1-1.05-1.2-1.82-.16-1.21.67-2.5 2.47-2.74 1.92-.25 2.86.82 2.99 1.84.13.96-.37 1.79-2.25 2.74-1.64.83-1.67 1.53-1.62 1.97.08.65.62 1.14 1.44 1.03.87-.11 1.22-.51 2.27-2.23l1.54-2.54 2.3-.3Zm17.86-8.17 6.76-2.73.64 1.59-4.77 1.92.75 1.87 4.45-1.79.64 1.6-4.45 1.79 1.28 3.16-2 .8-3.31-8.22Zm24.35-7.3c1.25 2.11.97 4.83-1.8 6.48-2.58 1.54-5.11.65-6.43-1.57-1.25-2.09-.79-4.88 1.79-6.41 2.66-1.58 5.2-.57 6.44 1.5m-6.29 3.73c.86 1.44 2.26 2.13 3.74 1.25 1.53-.91 1.35-2.56.62-3.8-.8-1.35-2.16-2.13-3.7-1.21-1.48.88-1.42 2.47-.66 3.76m20.78-15c1.58 1.88 1.74 4.61-.73 6.69-2.3 1.94-4.94 1.47-6.6-.51-1.57-1.86-1.57-4.69.73-6.62 2.37-1.99 5.04-1.4 6.6.45Zm-5.61 4.7c1.08 1.28 2.57 1.74 3.9.63 1.37-1.15.92-2.74 0-3.85-1.01-1.2-2.47-1.75-3.85-.6-1.32 1.11-1 2.67-.04 3.82Zm8.81-14.09 2.62-3.03c1.95-2.26 4.49-2.23 6.26-.7 2.15 1.86 2.11 4.58.42 6.53l-2.59 3-6.7-5.8Zm6.85 3.08 1-1.16c1.13-1.31 1.01-2.66-.42-3.89-1.24-1.07-2.57-1.09-3.76.25l-1.01 1.17 4.19 3.62Z"/><path d="M145.93 291.86C65.46 291.86 0 226.4 0 145.93S65.46 0 145.93 0s145.93 65.46 145.93 145.93-65.46 145.93-145.93 145.93m0-282.42C70.67 9.45 9.45 70.67 9.45 145.93s61.23 136.49 136.49 136.49 136.49-61.23 136.49-136.49S221.19 9.45 145.93 9.45Z"/><path d="m71.2 105.24-17.07-2.06c-.34-.06-.38.23-.17.34l14.16 7.05c.63.32.74.63.42 1.27l-1.26 2.54c-.32.63-.63.74-1.27.42l-27.9-13.89c-.63-.32-.74-.63-.42-1.27l1.16-2.32c.23-.47.42-.64.97-.57l17.24 2.14c.3.04.38-.23.17-.34l-14.37-7.16c-.63-.31-.74-.63-.42-1.27l1.26-2.54c.32-.63.63-.74 1.27-.42l27.9 13.89c.63.31.74.63.42 1.27l-1.16 2.32c-.19.38-.42.63-.93.59Zm17.51-21.22c-3.47 3.21-6.77 3.11-11.61-2.13l-9.81-10.61c-4.84-5.24-4.68-8.54-1.21-11.74 3.47-3.21 6.8-3.07 11.61 2.13l9.81 10.61c4.81 5.2 4.68 8.54 1.21 11.74M69.03 62.73c-1.73 1.6-.07 3.41 1.54 5.14L80.76 78.9c1.6 1.73 3.27 3.54 5 1.93 1.73-1.6.1-3.37-1.54-5.14L74.03 64.66c-1.64-1.77-3.27-3.54-5-1.93m43.86-9.2 7.04 10.69c.42.65.2.99-.15 1.13l-2.75 1.13c-.57.23-.83.34-1.23-.26l-6.51-9.89-1.4.57q-.87.36-.52 1.23l3.96 9.66c.36.87-.08 1.05-.52 1.23l-2.62 1.08c-.44.18-.87.36-1.23-.52L95.12 40.74c-.27-.65-.14-.96.52-1.23l5.68-2.33c4.37-1.79 7.45-.51 10.14 6.05l.7 1.7c1.63 3.98 1.77 6.68.72 8.59Zm-7.82-1.03q.36.87 1.23.52l1.31-.54c2.18-.9 1.27-3.13.36-5.35l-1.02-2.49c-.92-2.23-1.83-4.46-4.01-3.56l-1.31.54q-.87.36-.52 1.23l3.96 9.66Zm41.73-4.99a.236.236 0 0 0-.47 0l-2.05 13c-.15.71-.16.94-1.1.93l-1.94-.03c-.85-.01-.94-.25-1.07-.96l-5.4-31.26c-.13-.66.06-.94.82-.93l2.83.05c.76.01.89.16 1.07.96L142 43.62c.04.24.37.24.42 0l2.26-14.27c.11-.76.35-.94 1.05-.93l2.27.04c.71.01.94.2 1.02.96l1.8 14.34c.04.24.37.24.42 0l2.97-14.26c.2-.8.35-.94 1.1-.93l2.83.05c.76.01.94.3.79.96l-6.4 31.07c-.15.71-.25.94-1.1.93l-1.94-.03c-.94-.02-.94-.25-1.07-.96l-1.63-13.06Zm31.89 20.71c-4.35-1.84-5.63-4.89-2.85-11.46l5.62-13.31c2.77-6.57 5.85-7.78 10.2-5.95 4.35 1.84 5.61 4.93 2.85 11.46l-5.62 13.31c-2.76 6.53-5.85 7.78-10.2 5.95m11.28-26.71c-2.18-.92-3.13 1.34-4.05 3.52l-5.84 13.84c-.92 2.18-1.87 4.44.3 5.36s3.11-1.3 4.05-3.52l5.84-13.84c.94-2.22 1.87-4.44-.3-5.36m13.81 43.09c-3.44-3.24-3.56-6.54 1.33-11.73l9.92-10.51c4.89-5.19 8.2-5.25 11.63-2.01s3.53 6.58-1.33 11.73l-9.92 10.51c-4.86 5.15-8.2 5.25-11.63 2.01m19.9-21.09c-1.72-1.62-3.4.16-5.02 1.88l-10.31 10.92c-1.62 1.72-3.31 3.5-1.59 5.12s3.37-.13 5.02-1.88l10.31-10.92c1.65-1.75 3.3-3.5 1.59-5.12m23.71 24.55c.64-.31.95-.21 1.27.43l2.72 5.51c2.09 4.24 1.02 7.4-5.34 10.53l-12.71 6.27c-6.35 3.13-9.52 2.06-11.61-2.17l-2.72-5.51c-.31-.64-.21-.95.43-1.27l27.95-13.79Zm-.42 6.52q-.42-.85-1.27-.43l-20.37 10.05q-.89.44-.47 1.29l.63 1.27c1.04 2.12 3.21 1.05 5.37-.01l13.47-6.65c2.16-1.07 4.32-2.13 3.28-4.25l-.63-1.27Zm7.67 52.21h-95.73c7.36-4.43 12.32-12.48 12.32-21.68v-20.83h-57.15c-6.78 0-12.29 5.51-12.29 12.29s5.51 12.29 12.29 12.29h6.83c1.14 7.61 5.67 14.11 12 17.93H37.22v24.99h25.46v21.39h27.68v21.39h110.55v-21.39h25.76v-21.39h27.97zm-85.09 42.69H119.8v-17.62h49.75zm27.97-21.39h-49.75v-17.62h49.75zm-91.96-51.52c0-4.69 3.82-8.51 8.51-8.51h6.52v17.03h-6.52c-4.69 0-8.51-3.82-8.51-8.51Zm18.82 8.54v-17.05h43.06v17.05c0 11.87-9.66 21.53-21.53 21.53s-21.53-9.66-21.53-21.53m-30.04 25.36h49.75v17.62H94.34zm-53.43 0h49.75v17.62H40.91zm25.46 21.39h49.75v17.62H66.37zm77.43 39.01H94.05v-17.62h49.75zm53.43 0h-49.75v-17.62h49.75zm25.76-21.39h-49.75v-17.62h49.75zm27.97-21.39h-49.75v-17.62h49.75z"/></g></svg>