<svg width="826" height="156" viewBox="0 0 826 156" fill="none" xmlns="http://www.w3.org/2000/svg">
<path fill-rule="evenodd" clip-rule="evenodd" d="M1.71899 1.99012C-0.385013 4.99512 0.492987 7.15312 5.53499 11.3671C8.39599 13.7591 10.273 16.3221 10.951 18.7641C12.393 23.9541 12.341 95.2151 10.892 100.5C10.209 102.991 8.20299 106.009 5.57499 108.5C0.204988 113.59 -0.506013 115.494 2.02299 118.023C3.85799 119.858 5.40799 120 23.566 120C35.141 120 43.921 119.577 45.066 118.965C48.146 117.317 47.338 114.068 42.583 108.986C40.138 106.371 37.686 102.532 37.089 100.382C35.63 95.1271 35.7 83.7001 37.2 82.2001C38.001 81.3991 42.416 81.0001 50.47 81.0001H62.54L68.27 91.2991C71.422 96.9631 74 102.525 74 103.659C74 104.793 72.875 107.379 71.5 109.405C68.499 113.826 68.279 117.544 70.934 118.965C72.056 119.565 80.216 120 90.363 120C104.933 120 108.12 119.737 109.429 118.429C111.879 115.979 111.294 113.062 107.771 110.16C105.995 108.697 102.958 105.895 101.021 103.933C96.659 99.5141 83.148 75.7841 84.7 75.2671C88.032 74.1561 95.008 68.5171 97.716 64.7451C102.755 57.7291 104.3 51.5021 103.795 40.2471C103.295 29.1141 101.357 23.9591 94.921 16.6481C89.722 10.7411 82.627 6.33412 73.244 3.18312C65.683 0.644117 64.763 0.574117 34.359 0.217117C3.47399 -0.145883 3.20499 -0.130883 1.71899 1.99012ZM58.96 11.8931C66.908 14.9131 71.511 19.2311 75.6 27.5061C78.847 34.0751 79.257 35.7811 79.372 43.1891C79.577 56.4671 75.223 64.3731 65.458 68.4531C57.822 71.6441 40.728 71.5851 37.499 68.3571C36.24 67.0971 36 62.4941 36 39.6291C36 19.7841 36.325 12.0751 37.2 11.2001C39.155 9.24512 53.166 9.69112 58.96 11.8931ZM153.335 37.4231C135.155 41.8321 121.349 56.9881 118.688 75.4591C115.359 98.5691 128.192 116.985 150.5 121.109C162.707 123.365 177.915 119.903 187.855 112.606C208.76 97.2611 211.947 65.1051 194.312 47.4701C184.296 37.4541 168.837 33.6631 153.335 37.4231ZM243.024 37.5411C227.635 41.8501 219.68 52.6691 222.955 64.8341C225.129 72.9051 230.687 77.3231 247.539 84.3711C258.044 88.7651 265.208 93.1421 267.419 96.5171C268.289 97.8441 269 100.745 269 102.965C269 109.568 264.177 112.824 256.018 111.729C250.71 111.017 247.852 108.69 241.989 100.306C236.239 92.0851 232.777 89.0001 229.299 89.0001C226.441 89.0001 222.995 90.6821 221.282 92.9131C219.615 95.0841 219.692 102.511 221.415 105.8C228.331 119.001 253.278 125.561 273.606 119.524C286.945 115.563 295.262 103.548 292.081 92.8371C289.99 85.7981 284.315 81.2681 269.24 74.6061C248.933 65.6321 245 62.3781 245 54.5501C245 49.0731 248.529 46.0001 254.82 46.0001C260.877 46.0001 263.971 48.2071 268.052 55.4381C272.401 63.1451 275.309 65.5001 280.476 65.5001C285.663 65.5001 288.695 63.1451 289.58 58.4281C291.016 50.7711 284.052 42.0001 273.8 38.5551C266.434 36.0811 250.156 35.5441 243.024 37.5411ZM337.105 37.5831C310.136 44.8351 296.267 75.2561 308.522 100.278C319.211 122.101 350.834 128.679 372.681 113.624C380.754 108.06 386.742 96.8131 382.896 94.4361C382.289 94.0601 379.126 95.6331 375.868 97.9311C368.113 103.399 363.29 105.002 354.624 104.99C342.263 104.973 332.29 98.1701 328.554 87.2051C325.531 78.3321 323.423 79.0001 354.429 79.0001C385.999 79.0001 385 79.2771 385 70.5341C385 62.8931 381.719 53.2001 377.44 48.2011C368.524 37.7851 352.267 33.5051 337.105 37.5831ZM412.5 38.4101C405.9 40.5281 397 44.5641 397 45.4391C397 45.6571 396.738 46.5181 396.418 47.3521C396.058 48.2901 397.487 50.6571 400.168 53.5641L404.5 58.2611L404.812 78.3811C404.984 89.4461 404.852 99.9581 404.519 101.739C404.186 103.521 402.133 107.036 399.957 109.55C395.617 114.565 395.212 116.069 397.571 118.429C398.878 119.736 402.042 120 416.371 120C434.268 120 436 119.621 436 115.709C436 114.669 434.444 112 432.542 109.778C428.188 104.692 427.722 101.661 428.173 81.4031C428.486 67.4001 428.788 65.0111 430.705 61.4051C438.367 46.9941 455.803 46.2051 460.101 60.0751C461.5 64.5921 462.457 89.9041 461.549 98.3841C460.924 104.222 460.336 105.646 456.917 109.596C452.593 114.592 452 117.394 454.934 118.965C457.766 120.48 490.265 120.335 491.8 118.8C493.763 116.837 493.174 113.511 490.405 110.924C485.385 106.235 485 104.403 485 85.2281C485 64.3291 485.979 60.0591 492.019 54.6021C501.19 46.3161 514.265 49.9281 517.799 61.7241C518.548 64.2221 519 72.7701 519 84.4161C519 104.467 518.645 106.206 513.595 110.924C510.528 113.79 510.222 117.513 512.934 118.965C514.043 119.558 521.905 120 531.363 120C545.172 120 548.118 119.739 549.463 118.395C551.553 116.304 550.665 113.537 546.367 108.747C544.515 106.683 542.947 104.883 542.882 104.747C542.817 104.611 542.478 94.1381 542.129 81.4731L541.494 58.4461L538.155 51.6621C534.272 43.7761 529.537 39.7931 521.139 37.3521C508.842 33.7771 493.082 38.2361 485.36 47.4741L481.728 51.8191L478.614 47.1821C472.131 37.5291 456.171 33.2841 443.847 37.9371C437.231 40.4351 430.08 45.6131 428.075 49.3591C425.779 53.6511 425 52.4481 425 44.6071C425 34.8471 424.449 34.5741 412.5 38.4101ZM591 37.8281C578.828 41.8911 569 49.2691 569 54.3451C569 57.7651 570.718 57.7611 577.904 54.3211C586.047 50.4241 598.625 49.8941 605 53.1811C609.871 55.6911 613.339 60.7701 614.503 67.0971L615.165 70.6931L608.333 69.2521C595.106 66.4631 577.647 69.6721 568.643 76.5471C556.197 86.0491 555.512 104.435 567.229 114.464C578.6 124.197 599.838 123.678 611.877 113.373C614.197 111.387 616.187 109.928 616.298 110.131C616.409 110.334 617.346 112.164 618.379 114.197C619.465 116.334 621.639 118.55 623.53 119.447C630.395 122.705 641.268 120.288 645.829 114.491C649.17 110.243 648.666 108.256 643.924 106.98C637.68 105.298 637 102.717 637 80.7141C637 56.0941 635.086 49.8631 625.213 42.3321C619.722 38.1441 615.464 36.8931 605 36.3961C598.573 36.0911 595.159 36.4401 591 37.8281ZM670.705 39.3951C656.105 44.4281 654.11 47.1481 660.559 53.2321C665.24 57.6481 665.947 61.1571 665.976 80.1141C666.007 100.113 665.046 105.345 660.483 110.017C656.603 113.991 656.012 117.401 658.934 118.965C661.481 120.328 692.519 120.328 695.066 118.965C697.992 117.399 697.405 114.454 693.25 109.858L689.5 105.709L689.189 86.1601C688.84 64.2671 689.638 60.1651 695.149 55.5281C699.662 51.7311 703.047 52.2131 709 57.5001C712.414 60.5331 714.953 61.9901 716.783 61.9681C722.056 61.9061 725.002 57.7271 724.996 50.3161C724.983 33.3451 704.296 30.8671 690.522 46.1871L686 51.2161V44.8081C686 38.3311 684.95 35.9921 682.05 36.0091C681.197 36.0141 676.092 37.5371 670.705 39.3951ZM734.2 39.2001C732.002 41.3981 732.954 43.7331 738.25 49.1401C743.337 54.3331 743.927 55.5751 757.25 89.0751C772.466 127.335 773 129.611 768.75 138.037C764.851 145.767 757.933 146.08 753.38 138.731C746.72 127.981 741.616 126.184 735.4 132.4C732.552 135.248 732 136.522 732 140.252C732 149.975 740.035 156.007 752.962 155.99C762.61 155.978 768.789 153.253 775.108 146.225C781.31 139.327 784.814 131.762 800.56 91.2771C807.999 72.1501 815.039 55.1501 816.204 53.5001C817.369 51.8501 819.825 49.2301 821.661 47.6771C825.333 44.5731 826.276 39.7041 823.418 38.6071C822.548 38.2731 816.939 38.0001 810.953 38.0001C801.217 38.0001 799.961 38.2041 799.035 39.9341C797.666 42.4931 797.576 42.1911 801 46.5001C802.65 48.5761 804 51.3431 804 52.6491C804 55.8851 786.838 101.264 785.985 100.283C784.869 98.9991 769.085 57.7621 768.421 54.3941C767.92 51.8561 768.373 50.6441 770.904 47.7621C774.244 43.9591 774.967 39.5851 772.418 38.6071C769.295 37.4091 735.467 37.9331 734.2 39.2001ZM354 48.5391C359.434 51.3021 364 58.8151 364 64.9931C364 69.3761 361.44 70.0001 343.47 70.0001C326.166 70.0001 325.381 69.6651 326.905 62.9351C328.624 55.3421 334.195 48.6491 339.827 47.4121C341.297 47.0891 342.95 46.6761 343.5 46.4941C345.115 45.9591 351.293 47.1621 354 48.5391ZM163.685 48.0601C170.899 50.7751 178.647 62.1651 181.494 74.2401C183.26 81.7271 183.439 93.3901 181.862 98.1011C176.561 113.933 159.1 115.18 148.966 100.45C143.874 93.0491 141.717 85.7781 141.221 74.3401C140.588 59.7481 143.377 52.6461 151.5 48.1641C154.063 46.7501 160.069 46.6991 163.685 48.0601ZM611.677 79.6041C614.339 81.5881 614.516 82.1951 614.787 90.2331C615.056 98.2141 614.904 98.9601 612.411 101.923C604.09 111.812 587.227 111.827 581.781 101.95C580.334 99.3241 579.965 97.0121 580.236 92.2671C580.537 87.0051 581.052 85.5461 583.546 82.8961C588.114 78.0411 591.435 76.9451 600.677 77.2391C607.157 77.4461 609.441 77.9371 611.677 79.6041Z" fill="black"/>
</svg>
